<?xml version="1.0" encoding="utf-8"?>
<!-- Generator: Adobe Illustrator 21.1.0, SVG Export Plug-In . SVG Version: 6.00 Build 0)  -->
<svg version="1.1" id="Layer_1" xmlns="http://www.w3.org/2000/svg" xmlns:xlink="http://www.w3.org/1999/xlink" x="0px" y="0px"
	 viewBox="0 0 405 111" style="enable-background:new 0 0 405 111;" xml:space="preserve">
<style type="text/css">
	.st0{fill:#FFFFFF;}
	.st1{fill:#429DB3;}
</style>
<g>
	<polygon class="st0" points="83.3,34.9 77.3,55.5 71,34.9 61,34.9 54.8,55.5 48.7,34.9 37.6,34.9 49.4,73.6 54.6,73.6 54.7,73.9 
		54.8,73.6 59.9,73.6 66,53.9 72,73.6 77.3,73.6 77.4,73.9 77.5,73.6 82.6,73.6 94.4,34.9 	"/>
	<rect x="95.8" y="34.9" class="st0" width="10.6" height="38.6"/>
	<path class="st0" d="M134,58.8c1.9-0.6,3.6-1.5,5-2.7c2.6-2.3,3.9-5.2,3.9-8.9c0-4-1.3-7.1-4-9.2c-2.5-2-6-3.1-10.5-3.1h-16.4v38.6
		h10.6V61.1l9.4,12.4h13.4L134,58.8z M122.8,45.3h5.6c2.1,0,2.9,0.4,3.3,0.6c0.2,0.1,0.5,0.3,0.5,1.3c0,1.1-0.4,1.4-0.5,1.5
		c-0.3,0.2-1.1,0.6-3.2,0.6h-5.6V45.3z"/>
	<polygon class="st0" points="157.4,63.3 157.4,59.3 175.4,59.3 175.4,49 157.4,49 157.4,45.3 176,45.3 176,34.9 146.8,34.9 
		146.8,73.6 176.4,73.6 176.4,63.3 	"/>
	<polygon class="st0" points="388.6,18.3 377.7,18.3 377.7,13 394,13 394,27.9 388.6,27.9 	"/>
	<polygon class="st1" points="395.6,11.2 388.1,11.2 388.1,7.5 399.2,7.5 399.2,17.8 395.6,17.8 	"/>
	<polygon class="st0" points="388.5,92 377.6,92 377.6,97.4 393.8,97.4 393.8,82.4 388.5,82.4 	"/>
	<polygon class="st1" points="395,99.3 395,91.8 398.6,91.8 398.6,102.9 388.4,102.9 388.4,99.3 	"/>
	<polygon class="st0" points="10,96.6 24.9,96.6 24.9,91.3 15.4,91.3 15.4,81.7 10,81.7 	"/>
	<polygon class="st1" points="8.1,98.6 15.6,98.6 15.6,102.2 4.5,102.2 4.5,92 8.1,92 	"/>
	<polygon class="st0" points="10,13 24.9,13 24.9,18.3 15.4,18.3 15.4,27.9 10,27.9 	"/>
	<polygon class="st1" points="8.6,11.2 8.6,18.7 4.9,18.7 4.9,7.5 15.1,7.5 15.1,11.2 	"/>
	<path class="st0" d="M211.4,39.5l-1.9,11.7c-0.1,0.7-0.5,0.9-1.1,0.9h-0.7c-0.5,0-0.8-0.3-1-0.9l-1.7-6.4c0-0.2-0.1-0.2-0.1-0.2h0
		c-0.1,0-0.1,0-0.1,0.2l-1.7,6.4c-0.1,0.5-0.5,0.9-1,0.9h-0.7c-0.6,0-1-0.2-1.1-0.9l-1.9-11.7v-0.1c0-0.2,0.1-0.3,0.3-0.3h1
		c0.1,0,0.3,0.1,0.3,0.3l1.7,11c0,0.2,0,0.3,0.1,0.3s0.1-0.1,0.1-0.3l1.7-6.4c0.1-0.5,0.4-0.7,0.8-0.7h1.1c0.4,0,0.7,0.2,0.8,0.7
		l1.7,6.4c0,0.2,0.1,0.3,0.1,0.3c0.1,0,0.1-0.1,0.1-0.3l1.7-11c0-0.2,0.2-0.3,0.3-0.3h1C211.2,39.1,211.4,39.2,211.4,39.5
		L211.4,39.5z"/>
	<path class="st0" d="M214.5,40.9h-0.9c-0.2,0-0.3-0.2-0.3-0.3v-1.4c0-0.2,0.2-0.3,0.3-0.3h0.9c0.2,0,0.3,0.2,0.3,0.3v1.4
		C214.9,40.8,214.7,40.9,214.5,40.9 M214.5,52h-0.8c-0.2,0-0.3-0.2-0.3-0.3v-8.8c0-0.2,0.2-0.3,0.3-0.3h0.8c0.2,0,0.3,0.2,0.3,0.3
		v8.8C214.8,51.8,214.7,52,214.5,52"/>
	<path class="st0" d="M224.1,51.8c-1.1,0.2-2.1,0.3-3.2,0.3c-2.6,0-3.8-1.7-3.8-4.3v-1.2c0-2.7,1.2-4.2,3.8-4.2c0.5,0,1.4,0.1,2,0.2
		v-3.2c0-0.2,0.1-0.3,0.3-0.3h0.9c0.2,0,0.3,0.1,0.3,0.3v12.1C224.4,51.6,224.4,51.8,224.1,51.8 M222.9,43.8c-0.6-0.1-1.5-0.1-2-0.1
		c-1.7,0-2.3,1.1-2.3,2.9v1.2c0,1.9,0.5,2.9,2.3,2.9c0.6,0,1.4-0.1,2-0.1V43.8z"/>
	<path class="st0" d="M233.8,47.7H228v0.2c0,2,0.9,2.9,2.5,2.9c1,0,2.2-0.1,3-0.2h0.1c0.1,0,0.3,0.1,0.3,0.2v0.6
		c0,0.2-0.1,0.3-0.3,0.4c-1,0.2-1.8,0.3-3,0.3c-2,0-4.1-1-4.1-4.3v-1.2c0-2.5,1.4-4.3,3.8-4.3c2.5,0,3.8,1.8,3.8,4.3v0.7
		C234.2,47.6,234,47.7,233.8,47.7 M232.6,46.5c0-1.9-0.7-2.8-2.3-2.8c-1.5,0-2.3,1-2.3,2.8v0.1L232.6,46.5L232.6,46.5z"/>
	<path class="st0" d="M243.2,52h-0.9c-0.2,0-0.3-0.2-0.3-0.3v-6.2c0-1.3-0.3-1.8-1.5-1.8h-1.2c-1.2,0-1.5,0.5-1.5,1.8v6.2
		c0,0.2-0.1,0.3-0.3,0.3h-0.9c-0.2,0-0.3-0.2-0.3-0.3v-6.2c0-2.7,1.9-3.1,3-3.1h1.2c1.2,0,3,0.5,3,3.1v6.2
		C243.5,51.8,243.4,52,243.2,52"/>
	<path class="st0" d="M247.2,40.9h-0.9c-0.2,0-0.3-0.2-0.3-0.3v-1.4c0-0.2,0.2-0.3,0.3-0.3h0.9c0.2,0,0.3,0.2,0.3,0.3v1.4
		C247.6,40.8,247.4,40.9,247.2,40.9 M247.2,52h-0.8c-0.2,0-0.3-0.2-0.3-0.3v-8.8c0-0.2,0.2-0.3,0.3-0.3h0.8c0.2,0,0.3,0.2,0.3,0.3
		v8.8C247.6,51.8,247.4,52,247.2,52"/>
	<path class="st0" d="M257.1,52h-0.9c-0.2,0-0.3-0.2-0.3-0.3v-6.2c0-1.3-0.3-1.8-1.5-1.8h-1.2c-1.2,0-1.5,0.5-1.5,1.8v6.2
		c0,0.2-0.1,0.3-0.3,0.3h-0.9c-0.2,0-0.3-0.2-0.3-0.3v-6.2c0-2.7,1.9-3.1,3-3.1h1.2c1.2,0,3,0.5,3,3.1v6.2
		C257.4,51.8,257.3,52,257.1,52"/>
	<path class="st0" d="M263.3,55.4c-1.3,0-2.4-0.2-2.9-0.3c-0.2-0.1-0.3-0.1-0.3-0.4v-0.5c0-0.2,0.1-0.3,0.3-0.3h0.1
		c0.6,0.1,2,0.2,2.9,0.2c1.6,0,2-0.4,2-2.1v-0.2c-0.4,0.1-1.4,0.2-1.9,0.2c-2.2,0-3.9-1-3.9-4.3v-1.3c0-2.9,1.3-4.2,3.9-4.2
		c1,0,2.3,0.2,3.1,0.4c0.3,0.1,0.4,0.2,0.4,0.4V52C266.8,54.6,265.6,55.4,263.3,55.4 M265.3,43.8c-0.5-0.1-1.2-0.2-1.9-0.2
		c-1.7,0-2.3,0.8-2.3,3v1.3c0,2.2,0.8,3,2.3,3c0.5,0,1.4-0.1,1.9-0.2V43.8z"/>
	<path class="st0" d="M288.6,52h-1c-0.2,0-0.3-0.2-0.3-0.3V39.4c0-0.2,0.1-0.3,0.3-0.3h1c0.2,0,0.3,0.1,0.3,0.3v12.2
		C288.9,51.8,288.8,52,288.6,52"/>
	<path class="st0" d="M298.6,52h-0.9c-0.2,0-0.3-0.2-0.3-0.3v-6.2c0-1.3-0.3-1.8-1.5-1.8h-1.2c-1.2,0-1.5,0.5-1.5,1.8v6.2
		c0,0.2-0.1,0.3-0.3,0.3h-0.9c-0.2,0-0.3-0.2-0.3-0.3v-6.2c0-2.7,1.9-3.1,3-3.1h1.2c1.2,0,3,0.5,3,3.1v6.2
		C298.9,51.8,298.7,52,298.6,52"/>
	<path class="st0" d="M308.2,52h-0.9c-0.2,0-0.3-0.2-0.3-0.3v-6.2c0-1.3-0.3-1.8-1.5-1.8h-1.2c-1.2,0-1.5,0.5-1.5,1.8v6.2
		c0,0.2-0.1,0.3-0.3,0.3h-0.9c-0.2,0-0.3-0.2-0.3-0.3v-6.2c0-2.7,1.9-3.1,3-3.1h1.2c1.2,0,3,0.5,3,3.1v6.2
		C308.5,51.8,308.4,52,308.2,52"/>
	<path class="st0" d="M314.4,52.1c-2.5,0-3.8-1.7-3.8-4.2v-1.3c0-2.5,1.3-4.2,3.8-4.2c2.5,0,3.9,1.7,3.9,4.2v1.3
		C318.3,50.4,317,52.1,314.4,52.1 M316.7,46.6c0-1.8-0.7-2.9-2.3-2.9c-1.6,0-2.3,1.1-2.3,2.9v1.3c0,1.8,0.7,2.9,2.3,2.9
		c1.6,0,2.3-1.1,2.3-2.9V46.6z"/>
	<path class="st0" d="M327.6,42.9l-2.2,7.9c-0.3,1.1-1,1.4-1.7,1.4c-0.7,0-1.4-0.3-1.7-1.4l-2.2-7.9c0-0.1,0-0.1,0-0.1
		c0-0.2,0.1-0.3,0.3-0.3h1c0.1,0,0.3,0.1,0.3,0.3l1.9,7.5c0.1,0.4,0.2,0.5,0.4,0.5c0.2,0,0.3-0.1,0.4-0.5l1.9-7.5
		c0.1-0.2,0.2-0.3,0.3-0.3h1c0.2,0,0.3,0.1,0.3,0.3C327.6,42.8,327.6,42.8,327.6,42.9"/>
	<path class="st0" d="M336.1,51.7c-0.9,0.2-2.1,0.4-3.2,0.4c-2.6,0-3.8-1.7-3.8-4.3v-1.2c0-2.6,1.2-4.3,3.8-4.3c1,0,2.3,0.2,3.2,0.4
		c0.3,0.1,0.4,0.2,0.4,0.4v8.2C336.5,51.5,336.5,51.6,336.1,51.7 M335,43.8c-0.5-0.1-1.3-0.2-2-0.2c-1.7,0-2.3,1.2-2.3,3v1.2
		c0,1.8,0.5,3,2.3,3c0.7,0,1.5-0.1,2-0.2V43.8z"/>
	<path class="st0" d="M343.1,52c-0.3,0.1-1,0.1-1.7,0.1c-1.6,0-2.6-0.5-2.6-2.4v-8.9c0-0.2,0.2-0.3,0.3-0.3l0.8-0.1h0
		c0.2,0,0.3,0.2,0.3,0.3v1.8h2.7c0.2,0,0.3,0.1,0.3,0.3v0.6c0,0.2-0.1,0.3-0.3,0.3h-2.7v6c0,1,0.3,1.2,1.3,1.2h1.4
		c0.2,0,0.4,0.1,0.4,0.2v0.6C343.4,51.9,343.4,52,343.1,52"/>
	<path class="st0" d="M346.5,40.9h-0.9c-0.2,0-0.3-0.2-0.3-0.3v-1.4c0-0.2,0.2-0.3,0.3-0.3h0.9c0.2,0,0.3,0.2,0.3,0.3v1.4
		C346.8,40.8,346.6,40.9,346.5,40.9 M346.4,52h-0.8c-0.2,0-0.3-0.2-0.3-0.3v-8.8c0-0.2,0.2-0.3,0.3-0.3h0.8c0.2,0,0.3,0.2,0.3,0.3
		v8.8C346.8,51.8,346.6,52,346.4,52"/>
	<path class="st0" d="M352.9,52.1c-2.5,0-3.8-1.7-3.8-4.2v-1.3c0-2.5,1.3-4.2,3.8-4.2c2.5,0,3.9,1.7,3.9,4.2v1.3
		C356.7,50.4,355.4,52.1,352.9,52.1 M355.2,46.6c0-1.8-0.7-2.9-2.3-2.9c-1.6,0-2.3,1.1-2.3,2.9v1.3c0,1.8,0.7,2.9,2.3,2.9
		c1.6,0,2.3-1.1,2.3-2.9V46.6z"/>
	<path class="st0" d="M365.8,52h-0.9c-0.2,0-0.3-0.2-0.3-0.3v-6.2c0-1.3-0.3-1.8-1.5-1.8h-1.2c-1.2,0-1.5,0.5-1.5,1.8v6.2
		c0,0.2-0.1,0.3-0.3,0.3h-0.9c-0.2,0-0.3-0.2-0.3-0.3v-6.2c0-2.7,1.9-3.1,3-3.1h1.2c1.2,0,3,0.5,3,3.1v6.2
		C366.1,51.8,365.9,52,365.8,52"/>
	<path class="st0" d="M208,66.9h-1.6v5.5c0,0.2-0.1,0.3-0.3,0.3c-1.3,0.1-2.1,0.1-3.4,0.1c-2.3,0-4.3-1.1-4.3-4c0-1,0.4-2,1.1-2.7
		c-0.6-0.7-1-1.7-1-2.8c0-2.9,1.7-3.7,4.3-3.7c2,0,3,0.2,3.4,0.3c0.2,0.1,0.2,0.1,0.2,0.2V61c0,0.1-0.1,0.2-0.3,0.2h-3.4
		c-2,0-2.8,0.3-2.8,2.2c0,0.7,0.3,1.6,0.7,2.1h7.2c0.2,0,0.3,0.1,0.3,0.3v0.7C208.4,66.8,208.2,66.9,208,66.9 M205,66.9h-4.2
		c-0.5,0.6-0.7,1.2-0.7,2c0,2,1.2,2.6,2.8,2.6h2.1V66.9z"/>
	<path class="st0" d="M223.4,72.8h-1.2c-0.2,0-0.2,0-0.4-0.2l-3.1-5.2h-0.2h-0.3c-0.6,0-1.5,0-1.9-0.1v5.1c0,0.2-0.1,0.3-0.3,0.3
		h-0.9c-0.2,0-0.3-0.2-0.3-0.3V60.3c0-0.2,0.1-0.3,0.4-0.4c0.7-0.1,2-0.1,3-0.1c2.7,0,4.9,0.9,4.9,3.7v0.1c0,1.9-1.1,3.1-2.7,3.5
		l3.2,5.3c0,0.1,0.1,0.1,0.1,0.2C223.6,72.7,223.5,72.8,223.4,72.8 M221.5,63.5c0-1.7-1.1-2.3-3.3-2.3c-0.5,0-1.5,0-1.9,0.1V66
		c0.4,0,1.5,0,1.9,0c2.1,0,3.3-0.5,3.3-2.4V63.5z"/>
	<path class="st0" d="M232.5,68.5h-5.8v0.2c0,2,0.9,2.9,2.5,2.9c1,0,2.2-0.1,3-0.2h0.1c0.1,0,0.3,0.1,0.3,0.2v0.6
		c0,0.2-0.1,0.3-0.3,0.4c-1,0.2-1.8,0.3-3,0.3c-2,0-4.1-1-4.1-4.3v-1.2c0-2.5,1.4-4.3,3.8-4.3c2.5,0,3.8,1.8,3.8,4.3v0.7
		C232.8,68.3,232.7,68.5,232.5,68.5 M231.2,67.2c0-1.9-0.7-2.8-2.3-2.8c-1.5,0-2.3,1-2.3,2.8v0.1L231.2,67.2L231.2,67.2z"/>
	<path class="st0" d="M237.6,72.9c-0.6,0-1.9-0.1-2.7-0.3c-0.2-0.1-0.4-0.2-0.4-0.3v-0.6c0-0.2,0.1-0.3,0.3-0.3h0.1
		c0.8,0.1,2.1,0.2,2.7,0.2c1.1,0,1.7-0.3,1.7-1.2c0-0.5-0.3-0.9-1.3-1.4l-1.8-1c-1.1-0.6-1.8-1.4-1.8-2.5c0-1.8,1.4-2.3,3.1-2.3
		c1,0,1.9,0.1,2.7,0.2c0.2,0,0.3,0.2,0.3,0.3v0.6c0,0.2-0.1,0.3-0.3,0.3h-0.1c-0.6-0.1-1.7-0.1-2.7-0.1c-1,0-1.6,0.1-1.6,1
		c0,0.5,0.4,0.8,1.2,1.3l1.7,1c1.4,0.8,1.9,1.6,1.9,2.6C240.9,72.2,239.6,72.9,237.6,72.9"/>
	<path class="st0" d="M250,68.5h-5.8v0.2c0,2,0.9,2.9,2.5,2.9c1,0,2.2-0.1,3-0.2h0.1c0.1,0,0.3,0.1,0.3,0.2v0.6
		c0,0.2-0.1,0.3-0.3,0.4c-1,0.2-1.8,0.3-3,0.3c-2,0-4.1-1-4.1-4.3v-1.2c0-2.5,1.4-4.3,3.8-4.3c2.5,0,3.8,1.8,3.8,4.3v0.7
		C250.3,68.3,250.2,68.5,250,68.5 M248.7,67.2c0-1.9-0.7-2.8-2.3-2.8c-1.5,0-2.3,1-2.3,2.8v0.1L248.7,67.2L248.7,67.2z"/>
	<path class="st0" d="M259,72.5c-0.9,0.2-2.1,0.4-3.2,0.4c-2.6,0-3.8-1.7-3.8-4.3v-1.2c0-2.6,1.2-4.3,3.8-4.3c1,0,2.3,0.2,3.2,0.4
		c0.3,0.1,0.4,0.2,0.4,0.4v8.2C259.3,72.3,259.3,72.4,259,72.5 M257.8,64.6c-0.5-0.1-1.3-0.2-2-0.2c-1.7,0-2.3,1.2-2.3,3v1.2
		c0,1.8,0.5,3,2.3,3c0.7,0,1.5-0.1,2-0.2V64.6z"/>
	<path class="st0" d="M265.6,64.5c-1.2,0-1.8,0-2.4,0.2v7.8c0,0.2-0.1,0.3-0.3,0.3H262c-0.2,0-0.3-0.2-0.3-0.3V64
		c0-0.2,0.1-0.3,0.3-0.4c1-0.4,2.2-0.5,3.6-0.5c0.2,0,0.4,0,0.4,0.3v0.8C266,64.4,266,64.5,265.6,64.5"/>
	<path class="st0" d="M273.4,72.7c-0.6,0.1-1.4,0.2-2.2,0.2c-2.4,0-3.7-1.7-3.7-4.2v-1.4c0-2.5,1.3-4.2,3.7-4.2
		c0.8,0,1.6,0.1,2.2,0.2c0.3,0.1,0.3,0.1,0.3,0.4v0.6c0,0.2-0.1,0.3-0.3,0.3h-0.1c-0.8-0.1-1.3-0.1-2.1-0.1c-1.4,0-2.2,0.9-2.2,2.9
		v1.4c0,1.9,0.8,2.9,2.2,2.9c0.8,0,1.4,0,2.1-0.1h0.1c0.2,0,0.3,0.1,0.3,0.3v0.6C273.7,72.5,273.6,72.7,273.4,72.7"/>
	<path class="st0" d="M282.6,72.8h-0.8c-0.2,0-0.3-0.2-0.3-0.3v-5.8c0-1.4-0.7-2.2-2.3-2.2c-0.7,0-1.5,0.1-2,0.3v7.7
		c0,0.2-0.2,0.3-0.3,0.3H276c-0.2,0-0.3-0.2-0.3-0.3V60.1c0-0.2,0.1-0.3,0.3-0.3h0.9c0.2,0,0.3,0.1,0.3,0.3v3.3
		c0.6-0.1,1.3-0.2,2-0.2c2.6,0,3.8,1.4,3.8,3.5v5.8C283,72.6,282.8,72.8,282.6,72.8"/>
	<path class="st0" d="M297.3,72.8c-0.7,0.1-2.4,0.1-3.4,0.1c-2.4,0-3.7-0.9-3.7-3.2V63c0-2.3,1.3-3.2,3.7-3.2c1,0,2.7,0,3.4,0.1
		c0.1,0,0.2,0.1,0.2,0.2V61c0,0.1-0.1,0.2-0.2,0.2h-3.3c-1.8,0-2.1,0.5-2.1,1.8v2.4h5.3c0.2,0,0.3,0.2,0.3,0.3v0.7
		c0,0.2-0.2,0.3-0.3,0.3h-5.3v2.9c0,1.3,0.3,1.8,2.1,1.8h3.3c0.1,0,0.2,0.1,0.2,0.2v0.9C297.5,72.7,297.4,72.8,297.3,72.8"/>
	<path class="st0" d="M306.8,72.8h-1.2c-0.1,0-0.2,0-0.2-0.1l-2.5-3.6l-2.5,3.6c-0.1,0.2-0.1,0.2-0.3,0.2h-1c-0.1,0-0.2-0.1-0.2-0.2
		c0-0.1,0-0.1,0.1-0.2l3.1-4.5l-2.9-4.2c-0.1-0.1-0.1-0.2-0.1-0.2c0-0.1,0.1-0.2,0.3-0.2h1.1c0.1,0,0.2,0.1,0.3,0.2l2.2,3.3l2.2-3.3
		c0.2-0.2,0.2-0.2,0.4-0.2h1c0.1,0,0.2,0.1,0.2,0.2c0,0.1,0,0.1-0.1,0.2l-2.9,4.1l3.2,4.6c0.1,0.1,0.1,0.1,0.1,0.2
		C307,72.7,306.9,72.8,306.8,72.8"/>
	<path class="st0" d="M314.1,72.7c-0.6,0.1-1.4,0.2-2.2,0.2c-2.4,0-3.7-1.7-3.7-4.2v-1.4c0-2.5,1.3-4.2,3.7-4.2
		c0.8,0,1.6,0.1,2.2,0.2c0.3,0.1,0.3,0.1,0.3,0.4v0.6c0,0.2-0.1,0.3-0.3,0.3h-0.1c-0.8-0.1-1.3-0.1-2.1-0.1c-1.4,0-2.2,0.9-2.2,2.9
		v1.4c0,1.9,0.8,2.9,2.2,2.9c0.9,0,1.4,0,2.1-0.1h0.1c0.2,0,0.3,0.1,0.3,0.3v0.6C314.4,72.5,314.4,72.7,314.1,72.7"/>
	<path class="st0" d="M323.4,68.5h-5.8v0.2c0,2,0.9,2.9,2.5,2.9c1,0,2.2-0.1,3-0.2h0.1c0.1,0,0.3,0.1,0.3,0.2v0.6
		c0,0.2-0.1,0.3-0.3,0.4c-1,0.2-1.8,0.3-3,0.3c-2,0-4.1-1-4.1-4.3v-1.2c0-2.5,1.4-4.3,3.8-4.3c2.5,0,3.8,1.8,3.8,4.3v0.7
		C323.7,68.3,323.6,68.5,323.4,68.5 M322.2,67.2c0-1.9-0.7-2.8-2.3-2.8c-1.5,0-2.3,1-2.3,2.8v0.1L322.2,67.2L322.2,67.2z"/>
	<path class="st0" d="M327.2,72.8h-0.9c-0.2,0-0.3-0.2-0.3-0.3V60.1c0-0.2,0.1-0.3,0.3-0.3h0.9c0.2,0,0.3,0.1,0.3,0.3v12.4
		C327.5,72.6,327.4,72.8,327.2,72.8"/>
	<path class="st0" d="M331.4,72.8h-0.9c-0.2,0-0.3-0.2-0.3-0.3V60.1c0-0.2,0.1-0.3,0.3-0.3h0.9c0.2,0,0.3,0.1,0.3,0.3v12.4
		C331.7,72.6,331.6,72.8,331.4,72.8"/>
	<path class="st0" d="M341.3,68.5h-5.8v0.2c0,2,0.9,2.9,2.5,2.9c1,0,2.2-0.1,3-0.2h0.1c0.1,0,0.3,0.1,0.3,0.2v0.6
		c0,0.2-0.1,0.3-0.3,0.4c-1,0.2-1.8,0.3-3,0.3c-2,0-4.1-1-4.1-4.3v-1.2c0-2.5,1.4-4.3,3.8-4.3c2.5,0,3.8,1.8,3.8,4.3v0.7
		C341.6,68.3,341.5,68.5,341.3,68.5 M340.1,67.2c0-1.9-0.7-2.8-2.3-2.8c-1.5,0-2.3,1-2.3,2.8v0.1L340.1,67.2L340.1,67.2z"/>
	<path class="st0" d="M350.6,72.8h-0.9c-0.2,0-0.3-0.2-0.3-0.3v-6.2c0-1.3-0.3-1.8-1.5-1.8h-1.2c-1.2,0-1.5,0.5-1.5,1.8v6.2
		c0,0.2-0.1,0.3-0.3,0.3H344c-0.2,0-0.3-0.2-0.3-0.3v-6.2c0-2.7,1.9-3.1,3-3.1h1.2c1.2,0,3,0.5,3,3.1v6.2
		C351,72.6,350.8,72.8,350.6,72.8"/>
	<path class="st0" d="M358.9,72.7c-0.6,0.1-1.4,0.2-2.2,0.2c-2.4,0-3.7-1.7-3.7-4.2v-1.4c0-2.5,1.3-4.2,3.7-4.2
		c0.8,0,1.6,0.1,2.2,0.2c0.3,0.1,0.3,0.1,0.3,0.4v0.6c0,0.2-0.1,0.3-0.3,0.3h-0.1c-0.8-0.1-1.3-0.1-2.1-0.1c-1.4,0-2.2,0.9-2.2,2.9
		v1.4c0,1.9,0.8,2.9,2.2,2.9c0.9,0,1.4,0,2.1-0.1h0.1c0.2,0,0.3,0.1,0.3,0.3v0.6C359.2,72.5,359.1,72.7,358.9,72.7"/>
	<path class="st0" d="M368.2,68.5h-5.8v0.2c0,2,0.9,2.9,2.5,2.9c1,0,2.2-0.1,3-0.2h0.1c0.1,0,0.3,0.1,0.3,0.2v0.6
		c0,0.2-0.1,0.3-0.3,0.4c-1,0.2-1.8,0.3-3,0.3c-2,0-4.1-1-4.1-4.3v-1.2c0-2.5,1.4-4.3,3.8-4.3c2.5,0,3.8,1.8,3.8,4.3v0.7
		C368.5,68.3,368.4,68.5,368.2,68.5 M367,67.2c0-1.9-0.7-2.8-2.3-2.8c-1.5,0-2.3,1-2.3,2.8v0.1L367,67.2L367,67.2z"/>
	<rect x="273" y="46.4" class="st0" width="7.6" height="1.7"/>
	<rect x="275.9" y="43.5" class="st0" width="1.7" height="7.6"/>
</g>
</svg>
